<svg width="94" height="71" viewBox="0 0 94 71" fill="none" xmlns="http://www.w3.org/2000/svg">
<path d="M59.011 64.9684C59.2598 64.7021 59.5009 64.428 59.7587 64.1707C69.2429 54.7041 78.733 45.2427 88.2292 35.7864C88.7203 35.299 88.6672 35.0753 88.2085 34.6228C78.7226 25.1847 69.248 15.7366 59.7847 6.27863C59.5566 6.05238 59.3428 5.81061 59.1225 5.5753C59.0667 5.36973 58.9864 5.15769 59.0227 4.94824C59.1873 3.99538 58.9825 3.03863 59.0667 2.08706C59.0888 1.82848 58.9942 1.51172 59.3816 1.42639C59.5929 1.60481 59.8171 1.76901 60.0114 1.96424C70.9616 12.884 81.9135 23.8021 92.8671 34.7185C93.3039 35.1529 93.2455 35.3649 92.8464 35.7528C81.8885 46.6649 70.9379 57.5842 59.9946 68.5109C59.7523 68.7527 59.4853 68.9673 59.23 69.1949C58.8529 69.0656 58.9009 68.6984 58.9177 68.4437C58.9877 67.3809 58.8905 66.3221 58.9177 65.2619C58.9148 65.1564 58.9476 65.0529 59.011 64.9684Z" fill="#3A93C2"/>
<path d="M62.8733 37.3158C64.6162 37.0275 66.3592 36.7133 68.1371 36.8258C69.5807 36.9163 71.0088 37.0947 72.306 37.8226C73.7742 38.6449 74.2938 40.1304 73.6394 41.6793C72.9306 43.3601 71.684 44.6038 70.2844 45.6873C67.0758 48.1774 63.4253 49.7677 59.5169 50.802C57.2155 51.4122 54.8751 51.751 52.4894 51.6424C51.2207 51.5829 49.9728 51.4032 48.7922 50.8485C47.0013 50.0069 46.3819 48.3726 47.2372 46.5716C48.1288 44.7008 49.6488 43.4014 51.2765 42.2146C52.6743 41.2067 54.1751 40.349 55.7537 39.6559C56.0427 39.9856 55.9442 40.3593 55.8833 40.7303C55.8455 40.8307 55.7826 40.9197 55.7006 40.9889C54.222 41.9495 52.6553 42.7847 51.4488 44.1164C50.9922 44.6045 50.6113 45.1579 50.3188 45.7584C49.5672 47.3577 50.1529 48.5265 51.8609 49.1342C53.3602 49.6668 54.9269 49.7121 56.5157 49.5078C59.3226 49.1677 62.0517 48.3569 64.5877 47.1095C66.446 46.1825 68.1993 45.1003 69.5846 43.5075C70.0576 42.9765 70.439 42.371 70.7133 41.7155C70.8906 41.307 70.9257 40.851 70.813 40.4203C70.7002 39.9896 70.4462 39.609 70.0913 39.3392C69.0974 38.5634 67.9168 38.3229 66.6974 38.2648C65.7285 38.2001 64.7554 38.247 63.7972 38.4044C63.5679 38.4471 63.3307 38.5156 63.1013 38.3889C62.8111 38.0812 62.6322 37.7437 62.8733 37.3158Z" fill="#9898A0"/>
<path d="M62.8747 37.3155C62.8982 37.6805 62.9923 38.0375 63.152 38.3667C63.5252 38.7688 63.555 39.3053 63.6574 39.7888C63.9567 41.211 64.5645 42.5453 64.6824 44.0024C64.6967 44.1782 64.6954 44.3502 64.5192 44.4562C64.1408 44.4872 64.0798 44.1614 63.9671 43.9313C63.4177 42.822 62.8203 41.7334 62.2475 40.6409C61.9209 40.0138 61.4998 39.4488 61.1071 38.867C60.9027 38.5013 60.6401 38.1712 60.3296 37.8896C58.9767 36.5863 58.4531 36.6536 57.489 38.2555C57.3117 38.5493 57.1679 38.862 57.0601 39.1876C56.8347 39.6436 56.6529 40.1198 56.5171 40.6098C56.3616 41.052 56.2748 41.5149 56.1387 41.957C56.0778 42.1574 56.1193 42.4483 55.794 42.4871C55.4441 41.9338 55.5517 41.3701 55.7564 40.8064V39.6544C56.0013 36.3097 56.753 33.0399 57.257 29.7327C57.4113 28.7216 57.283 27.7843 56.9979 26.8276C56.6091 25.5127 56.1426 24.2172 55.8873 22.8635C55.851 22.7252 55.9132 22.6864 56.0402 22.7136C56.7685 23.6367 57.4177 24.6206 58.3274 25.4002C58.8452 25.8582 59.5188 26.1015 60.2104 26.0803C61.5723 26.066 62.8941 25.7919 64.1991 25.4338C64.7965 25.267 65.3887 25.086 65.9822 24.9167C66.1325 24.8908 66.323 24.7486 66.371 25.0459L62.8086 27.4792C61.5671 28.3247 61.124 29.5478 61.365 30.9584C61.7266 33.1084 62.2309 35.2322 62.8747 37.3155Z" fill="#EAA137"/>
<path d="M46.3001 16.0024C46.1705 16.1485 46.0643 16.305 45.9282 16.4407C42.7628 19.6032 39.5974 22.7664 36.432 25.9306C36.2692 26.1129 36.0674 26.2563 35.8415 26.3503C35.6156 26.4443 35.3714 26.4865 35.127 26.4736C33.9024 26.4387 32.6752 26.4633 31.4519 26.4633C31.3794 26.2461 31.5517 26.1762 31.6476 26.0819C36.3663 21.368 41.089 16.6549 45.8155 11.9427C45.8953 11.8723 45.9792 11.8067 46.0669 11.7462C46.1695 11.8412 46.2474 11.9597 46.294 12.0915C46.3405 12.2233 46.3541 12.3643 46.3338 12.5026C46.2533 13.6675 46.242 14.8362 46.3001 16.0024Z" fill="#7FC2EB"/>
<path d="M45.9245 58.5135C45.826 58.4308 45.721 58.3558 45.6303 58.2653C40.9651 53.6108 36.3 48.9564 31.6348 44.302C31.5441 44.2115 31.4624 44.1132 31.2681 43.8999C32.0987 43.8999 32.8231 43.9839 33.5255 43.8818C35.144 43.6491 36.2715 44.2619 37.3859 45.4449C40.1306 48.3578 43.0269 51.1336 45.8597 53.9573C46.0268 54.1241 46.1785 54.3051 46.3365 54.4745C46.1564 55.5088 46.3249 56.5612 46.2445 57.602C46.2251 57.9407 46.3145 58.3144 45.9245 58.5135Z" fill="#7FC2EB"/>
<path d="M45.8744 37.4478C45.2057 37.4478 44.537 37.4388 43.8697 37.4478C43.5664 37.4478 43.4265 37.3366 43.455 37.0328C43.4576 36.9897 43.4576 36.9466 43.455 36.9035C43.4057 35.1348 43.4057 35.1348 45.1681 35.1348C46.0753 35.1348 46.9824 35.1529 47.8895 35.1348C48.2912 35.1232 48.3936 35.2641 48.4078 35.652C48.4493 37.4478 48.461 37.4465 46.661 37.4465L45.8744 37.4478Z" fill="#7FC2EB"/>
<path d="M49.8063 57.9836C50.5269 58.6456 51.2785 59.2765 51.9083 60.0329C51.8318 61.0672 51.9355 62.0924 51.9083 63.1216C51.8979 63.5095 51.8461 63.8508 51.491 64.0732C50.7638 63.4205 50.0717 62.73 49.4176 62.0045C49.288 60.784 49.4176 59.5648 49.4565 58.3469C49.4603 58.1439 49.5394 57.9578 49.8063 57.9836Z" fill="#65B1DC"/>
<path d="M46.3008 16.0023C46.0157 15.4916 46.0416 14.9344 46.0766 14.3849C46.1284 13.5045 46.2386 12.6266 46.0636 11.75C46.6272 11.1069 47.2333 10.5022 47.8779 9.93994C48.3625 10.2877 48.2472 10.8165 48.2303 11.2781C48.1992 12.2116 48.1863 13.1424 48.2459 14.0746C47.6536 14.7712 47.0029 15.4161 46.3008 16.0023Z" fill="#76BCE6"/>
<path d="M45.9253 58.514C46.1987 57.7512 46.0199 56.9625 46.0782 56.1868C46.1106 55.764 46.0782 55.3347 46.0639 54.9094C46.0639 54.7025 46.0834 54.5215 46.3426 54.4905C46.9698 55.0658 47.6125 55.6243 48.1257 56.3096C48.1801 57.4732 47.9572 58.6265 48.1257 59.7875C48.1633 60.0461 48.1257 60.3046 47.8665 60.4585C47.181 59.8497 46.5328 59.2003 45.9253 58.514Z" fill="#77BDE7"/>
<path d="M58.0945 4.54702C57.9261 4.48626 57.8133 4.57288 57.698 4.68278C57.2185 5.14176 56.7339 5.59556 56.2505 6.05196C56.2237 6.05378 56.1968 6.04997 56.1716 6.04077C56.1463 6.03156 56.1233 6.01716 56.104 5.99851C56.0847 5.97986 56.0695 5.95737 56.0595 5.9325C56.0495 5.90763 56.0448 5.88094 56.0458 5.85414C55.9458 4.57753 55.9254 3.29595 55.9849 2.01682C55.9849 1.88753 56.0911 1.7854 56.1572 1.6755C56.6379 1.12212 57.1576 0.603648 57.7123 0.124023C58.0025 0.253313 58.0246 0.511892 58.0323 0.770472C58.0634 2.02846 58.0064 3.28903 58.0945 4.54702Z" fill="#459BC9"/>
<path d="M61.2298 22.4226C61.13 23.1906 60.9434 24.0646 60.4056 24.8197C60.0402 25.3368 59.5996 25.32 59.3119 24.7589C58.7935 23.7543 58.7935 22.6903 59.1551 21.6469C59.3404 21.1065 59.7654 20.8182 60.3667 20.9423C60.8773 21.0483 61.2453 21.6456 61.2298 22.4226Z" fill="#EAA139"/>
<path d="M59.0113 64.9681C59.1526 65.9797 59.1848 67.0035 59.1072 68.022C59.0799 68.4183 59.1216 68.8163 59.2303 69.1985C59.0398 69.5644 58.6666 69.7674 58.4295 70.088C58.0407 70.6052 57.7362 70.5017 57.4433 70.0104C57.3367 69.8239 57.2792 69.6135 57.2761 69.3989C57.3159 68.5457 57.2973 67.6909 57.2204 66.8403C57.2073 66.6045 57.2354 66.3683 57.3033 66.1421C57.3591 65.9301 57.4251 65.7051 57.7336 65.8473C57.9552 66.0193 58.0744 65.8473 58.213 65.7116C58.4761 65.4607 58.7443 65.2164 59.0113 64.9681Z" fill="#4097C6"/>
<path d="M47.8689 60.4532C48.0607 60.0162 47.935 59.5779 47.8831 59.1345C47.7847 58.2682 48.0672 57.4046 47.9272 56.5319C47.9181 56.4685 48.0568 56.3806 48.1255 56.3043C48.7151 56.8344 49.3514 57.3192 49.8101 57.9851C49.6339 58.073 49.6196 58.1919 49.6209 58.3962C49.6209 59.4137 49.582 60.4312 49.5639 61.4488C49.5619 61.6422 49.5125 61.8321 49.4201 62.0021C48.8647 61.5254 48.3462 61.0077 47.8689 60.4532Z" fill="#6FB7E1"/>
<path d="M51.4902 64.0738C51.9036 63.2166 51.7118 62.3051 51.7183 61.4143C51.7183 60.9424 51.5887 60.4588 51.9088 60.0334C52.5067 60.5562 53.0695 61.1177 53.5935 61.7142C53.4392 62.7757 53.552 63.8475 53.4898 64.9115C53.4729 65.2206 53.5442 65.5722 53.1723 65.7506L51.4902 64.0738Z" fill="#5CABD7"/>
<path d="M56.1566 1.67578C56.1307 3.13675 56.0568 4.59773 56.2499 6.05224C55.8883 6.63921 55.2896 6.98959 54.8244 7.47442C54.4655 7.39426 54.4357 7.09431 54.459 6.82798C54.5549 5.82857 54.4758 4.83174 54.446 3.83363C54.4319 3.61956 54.4869 3.40662 54.6028 3.22597C55.0767 2.66711 55.5964 2.14859 56.1566 1.67578Z" fill="#4FA2D0"/>
<path d="M57.7379 65.8475C57.2053 66.0841 57.3789 66.6387 57.4139 66.9555C57.528 67.9794 57.4308 68.9931 57.4476 70.0106C56.8917 69.5324 56.3719 69.0138 55.8926 68.4591C55.7539 67.6019 55.8472 66.7318 55.7435 65.8733C55.7118 65.5353 55.7118 65.1951 55.7435 64.8571C55.7617 64.583 55.7876 64.2844 56.1854 64.2947C56.7408 64.7732 57.2597 65.2922 57.7379 65.8475Z" fill="#479DCB"/>
<path d="M54.6038 3.22559C54.6453 4.17199 54.7036 5.11839 54.7243 6.06996C54.736 6.54316 54.4055 7.03575 54.8254 7.47922C54.4168 8.01533 53.9373 8.49375 53.3999 8.9014C52.9969 8.77211 52.9891 8.39329 53.0332 8.10627C53.19 7.07195 53.0332 6.05444 52.9956 5.02918C52.9974 4.94307 53.0137 4.85786 53.0436 4.77706C53.5248 4.22247 54.0463 3.70391 54.6038 3.22559Z" fill="#55A6D3"/>
<path d="M48.239 14.0691C47.8839 13.9864 48.0135 13.6981 48.0109 13.4886C47.998 12.4892 48.0019 11.4885 48.0109 10.4878C48.0159 10.2953 47.9713 10.1048 47.8813 9.93445C48.3153 9.42335 48.7922 8.95015 49.3068 8.52002C49.566 8.73205 49.6049 9.03718 49.6023 9.33325C49.5932 10.44 49.6243 11.5454 49.6541 12.6521C49.2427 13.1808 48.7674 13.6567 48.239 14.0691Z" fill="#6FB7E1"/>
<path d="M53.0477 4.76965C53.3224 5.67468 53.3354 6.61332 53.2538 7.53516C53.2097 8.02 53.1617 8.46087 53.4041 8.89399C53.0153 9.44865 52.5034 9.88952 51.9786 10.3162C51.6456 10.0731 51.678 9.69171 51.6417 9.35297C51.5581 8.65139 51.5993 7.94058 51.7635 7.25331C51.8672 6.84217 51.5121 6.46076 51.7557 6.06643C52.1468 5.59661 52.5792 5.16262 53.0477 4.76965Z" fill="#5CABD8"/>
<path d="M58.094 4.54694C57.8969 4.26475 57.8052 3.92254 57.8348 3.57985C57.8543 2.67482 57.8348 1.76979 57.8426 0.864766C57.8426 0.606187 57.8504 0.347607 57.7065 0.116179C57.7467 0.0205045 57.8582 -0.0325042 57.9087 0.0217975C58.3726 0.51827 59.0439 0.797536 59.3821 1.422C59.0296 2.0426 59.1787 2.74981 59.2124 3.37428C59.2525 4.12157 59.1527 4.84042 59.1229 5.5722C58.7426 5.26991 58.3975 4.92601 58.094 4.54694Z" fill="#3E97C5"/>
<path d="M56.1821 64.2946C55.8477 64.4381 55.8685 64.742 55.9112 65.007C56.0136 65.6302 55.8555 66.256 56.0123 66.8869C56.1419 67.3976 56.0123 67.9419 55.8931 68.4616C55.3805 68.0264 54.9038 67.5509 54.4676 67.0394C54.3108 65.819 54.4676 64.5972 54.4676 63.3754C54.4676 63.1504 54.5324 62.8711 54.8966 63.0069C55.362 63.3978 55.7922 63.8287 56.1821 64.2946Z" fill="#50A3D0"/>
<path d="M51.7576 6.06665C52.1697 7.13588 51.6371 8.21286 51.7822 9.29889C51.8289 9.64927 52.0414 9.95956 51.9805 10.3216C51.6319 10.8323 51.168 11.2266 50.6846 11.6145C50.3516 11.4904 50.3516 11.1671 50.3516 10.9189C50.3619 10.2789 50.222 9.63505 50.3723 9.00282C50.5019 8.45722 50.2207 7.89481 50.463 7.35825C50.85 6.8855 51.2838 6.45279 51.7576 6.06665Z" fill="#63AFDB"/>
<path d="M54.8868 63.012C54.498 63.0818 54.6276 63.3843 54.6198 63.6235C54.6082 64.6656 54.6017 65.7064 54.5836 66.7485C54.5617 66.8534 54.5213 66.9537 54.4643 67.0445C53.9961 66.6514 53.5625 66.2188 53.1685 65.7516C53.4432 65.0806 53.2773 64.3734 53.3253 63.683C53.3615 63.1594 53.3253 62.6306 53.3149 62.1031C53.3135 62.0177 53.3393 61.9341 53.3887 61.8643C53.4381 61.7946 53.5085 61.7424 53.5896 61.7152C54.059 62.109 54.493 62.5429 54.8868 63.012Z" fill="#54A6D3"/>
<path d="M50.4626 7.35767C50.7438 8.44499 50.4535 9.5349 50.4885 10.6235C50.4988 10.9519 50.6181 11.2777 50.6868 11.6048C50.4561 12.069 49.9792 12.2901 49.6501 12.6521C49.3792 12.3289 49.4699 11.9319 49.4362 11.5648C49.3455 10.5524 49.558 9.52585 49.3066 8.51998C49.6479 8.09124 50.0355 7.70144 50.4626 7.35767Z" fill="#68B2DD"/>
<path d="M66.3653 25.0367C66.272 24.8918 66.1062 24.963 65.9766 24.9074C66.192 24.7578 66.4503 24.6821 66.7126 24.6915C66.7165 24.9474 66.5273 24.9785 66.3653 25.0367Z" fill="#F2C688"/>
<path d="M56.0396 22.7171L55.8867 22.8671C55.7571 22.7378 55.6871 22.5103 55.818 22.4366C55.9489 22.3629 56.0137 22.5762 56.0396 22.7171Z" fill="#F1C280"/>
<path d="M55.882 42.4651L55.7382 43.511L55.6475 43.5033V40.933C55.6824 40.8916 55.7187 40.8503 55.755 40.8102C55.8717 41.3558 55.6319 41.9298 55.882 42.4651Z" fill="#F4CC94"/>
<path d="M64.5666 44.0452C64.8277 44.4867 64.9403 45 64.888 45.51C64.7282 45.1549 64.5692 44.7994 64.4111 44.4434C64.5809 44.3568 64.5602 44.1951 64.5666 44.0452Z" fill="#EDB25E"/>
<path d="M6.26053 39.1438C6.04854 39.313 5.85776 39.4681 5.68111 39.6162C5.5186 39.7642 5.29954 39.8911 5.00983 40.0392C4.72719 40.1872 4.46575 40.293 4.19017 40.3494C3.92873 40.427 3.56129 40.4622 3.0808 40.4622C2.19754 40.4622 1.46267 40.152 0.883257 39.5668C0.296774 38.9676 0 38.2344 0 37.325C0 36.5707 0.148384 35.9714 0.445162 35.5203C0.749003 35.062 1.17297 34.6954 1.72412 34.4275C2.2894 34.1596 2.96774 33.9693 3.74501 33.8635C4.53641 33.7648 5.37727 33.6662 6.28879 33.6168V33.5535C6.28879 33.0106 6.07681 32.6229 5.67404 32.4185C5.26421 32.207 4.65653 32.1012 3.83687 32.1012C3.46237 32.1012 3.03841 32.1718 2.54378 32.3127C2.05622 32.4325 1.57573 32.6158 1.09524 32.8203H0.840861V30.4022C1.15177 30.3035 1.64639 30.2048 2.33886 30.0779C3.03134 29.951 3.72381 29.8876 4.43748 29.8876C6.1616 29.8876 7.41229 30.1837 8.20369 30.7476C9.00216 31.3257 9.39786 32.207 9.39786 33.3772V40.1944L6.26053 40.1943V39.1438ZM6.26053 37.5788V35.4991C5.73057 35.5554 5.30661 35.6048 4.98864 35.647C4.67066 35.6822 4.34562 35.7459 4.03472 35.8657C3.75914 35.9574 3.54716 36.0983 3.40584 36.2957C3.25038 36.4931 3.16559 36.7468 3.16559 37.057C3.16559 37.5223 3.29985 37.8467 3.54716 38.0229C3.79447 38.1993 4.16897 38.2766 4.67066 38.2766C4.92504 38.2766 5.20769 38.2344 5.48326 38.0933C5.78004 37.9805 6.03441 37.7973 6.26053 37.5788Z" fill="url(#paint0_linear_201_179)"/>
<path d="M16.2595 40.4615C15.4328 40.4615 14.6626 40.3487 13.9772 40.1443C13.2988 39.9328 12.7053 39.6155 12.1965 39.1855C11.6878 38.7414 11.2991 38.1985 11.0165 37.5499C10.7339 36.8943 10.5996 36.1118 10.5996 35.2306C10.5996 34.2647 10.7409 33.4681 11.0518 32.7843C11.3557 32.1145 11.7584 31.5647 12.2884 31.1346C12.7901 30.7187 13.3766 30.4085 14.062 30.2111C14.7333 30.0067 15.4399 29.908 16.1747 29.908C16.7259 29.908 17.2912 29.9785 17.8353 30.1124C18.3935 30.2322 18.9446 30.4367 19.5028 30.7187V33.3906H19.1001C18.987 33.2707 18.8245 33.1368 18.6478 33.0099C18.4571 32.8548 18.2733 32.7279 18.0543 32.6151C17.8282 32.4741 17.5597 32.3895 17.2912 32.2908C16.9944 32.2061 16.6764 32.1568 16.3231 32.1568C15.5247 32.1568 14.9028 32.4318 14.4647 32.9958C14.0337 33.5457 13.8005 34.2929 13.8005 35.2306C13.8005 36.2246 14.0408 36.9789 14.5071 37.4724C14.9735 37.9588 15.5882 38.2056 16.3726 38.2056C16.7683 38.2056 17.1216 38.1563 17.4254 38.0787C17.7151 37.987 17.9695 37.8742 18.1744 37.7544C18.3935 37.6275 18.5772 37.5077 18.7256 37.3668C18.874 37.2399 19.0082 37.12 19.1001 37.0143H19.5028V39.6791C19.3262 39.7567 19.1213 39.8481 18.881 39.9539C18.6478 40.0456 18.4217 40.1302 18.1674 40.1936C17.8706 40.2923 17.5738 40.3346 17.3124 40.384C17.0439 40.4334 16.6976 40.4615 16.2595 40.4615Z" fill="url(#paint1_linear_201_179)"/>
<path d="M33.1615 40.1936V35.1883C33.1615 34.7018 33.1544 34.2929 33.1332 33.9475C33.112 33.6091 33.0555 33.3271 32.9636 33.1156C32.8788 32.8971 32.7304 32.749 32.5467 32.6503C32.363 32.5446 32.0945 32.5024 31.7624 32.5024C31.5222 32.5024 31.289 32.5446 31.0487 32.6503C30.8156 32.7561 30.5612 32.9112 30.2856 33.0945V40.1936H27.1553V35.1883C27.1553 34.7018 27.1483 34.2929 27.1271 33.9475C27.0988 33.6091 27.0564 33.3271 26.9645 33.1156C26.8656 32.8971 26.7314 32.749 26.5477 32.6503C26.3498 32.5446 26.0884 32.5024 25.7563 32.5024C25.4948 32.5024 25.2475 32.5587 25.0002 32.6715C24.7529 32.7984 24.5126 32.9394 24.2865 33.0945V40.1936H21.1562V30.19H24.2865V31.2968C24.7953 30.8667 25.2828 30.5213 25.7351 30.2745C26.1802 30.0349 26.689 29.908 27.2613 29.908C27.869 29.908 28.4131 30.056 28.8653 30.345C29.3458 30.6341 29.6921 31.0641 29.9394 31.6493C30.54 31.0923 31.1123 30.6623 31.6352 30.3591C32.1722 30.056 32.7093 29.908 33.2533 29.908C33.7197 29.908 34.1366 29.9926 34.5111 30.1336C34.8785 30.2886 35.1965 30.5142 35.4438 30.8033C35.7335 31.1276 35.9384 31.5083 36.0727 31.9524C36.2211 32.3965 36.2847 32.9676 36.2847 33.6867L36.2847 40.1936H33.1615Z" fill="url(#paint2_linear_201_179)"/>
<path d="M3.93905 54.38C3.21667 54.38 2.5195 54.293 1.84752 54.1192C1.18394 53.937 0.642155 53.7052 0.222168 53.4237L1.04114 51.6105C1.43593 51.8589 1.88952 52.0659 2.4019 52.2315C2.92268 52.3888 3.43927 52.4674 3.95165 52.4674C4.29604 52.4674 4.57323 52.4384 4.78322 52.3805C4.99322 52.3142 5.14441 52.2315 5.23681 52.1321C5.3376 52.0245 5.388 51.9003 5.388 51.7595C5.388 51.5608 5.29561 51.4035 5.11081 51.2876C4.92602 51.1717 4.68663 51.0765 4.39264 51.002C4.09864 50.9275 3.77105 50.8529 3.40987 50.7784C3.05708 50.7039 2.70009 50.6087 2.3389 50.4928C1.98611 50.3769 1.66272 50.2278 1.36873 50.0457C1.07474 49.8553 0.835348 49.611 0.650554 49.313C0.46576 49.0066 0.373363 48.6216 0.373363 48.158C0.373363 47.6364 0.516159 47.1645 0.80175 46.7422C1.09574 46.32 1.53253 45.9805 2.11211 45.7239C2.69169 45.4672 3.41407 45.3389 4.27924 45.3389C4.85882 45.3389 5.4258 45.4051 5.98019 45.5376C6.54297 45.6618 7.04275 45.848 7.47954 46.0964L6.71096 47.922C6.29097 47.6985 5.87519 47.5329 5.4636 47.4253C5.05201 47.3094 4.65303 47.2514 4.26664 47.2514C3.92225 47.2514 3.64506 47.2887 3.43507 47.3632C3.22507 47.4294 3.07388 47.5205 2.98148 47.6364C2.88908 47.7523 2.84288 47.8848 2.84288 48.0338C2.84288 48.2242 2.93108 48.3774 3.10748 48.4933C3.29227 48.6009 3.53166 48.692 3.82565 48.7665C4.12804 48.8328 4.45563 48.9031 4.80842 48.9777C5.16961 49.0522 5.5266 49.1474 5.87939 49.2633C6.24058 49.3709 6.56817 49.52 6.86216 49.7104C7.15615 49.8925 7.39134 50.1368 7.56773 50.4431C7.75253 50.7412 7.84493 51.1179 7.84493 51.5732C7.84493 52.0783 7.69793 52.5461 7.40394 52.9766C7.11835 53.3988 6.68576 53.7383 6.10618 53.995C5.535 54.2516 4.81262 54.38 3.93905 54.38ZM8.99726 54.2061V45.5127H13.0291C13.8355 45.5127 14.5285 45.6411 15.1081 45.8977C15.6961 46.1544 16.1496 46.527 16.4688 47.0154C16.788 47.4956 16.9476 48.0669 16.9476 48.7293C16.9476 49.3833 16.788 49.9505 16.4688 50.4307C16.1496 50.9026 15.6961 51.2669 15.1081 51.5236C14.5285 51.7719 13.8355 51.8961 13.0291 51.8961H10.3832L11.492 50.8654V54.2061H8.99726ZM14.4529 54.2061L12.2606 51.0392H14.9191L17.124 54.2061H14.4529ZM11.492 51.1262L10.3832 49.996H12.8779C13.3987 49.996 13.7851 49.8842 14.0371 49.6607C14.2975 49.4372 14.4277 49.1267 14.4277 48.7293C14.4277 48.3236 14.2975 48.009 14.0371 47.7854C13.7851 47.5619 13.3987 47.4501 12.8779 47.4501H10.3832L11.492 46.32V51.1262ZM18.3239 54.2061V45.5127H20.3777L24.0316 51.4242H22.948L26.5011 45.5127H28.5548L28.58 54.2061H26.2869L26.2617 48.9528H26.6523L23.9938 53.3492H22.885L20.1509 48.9528H20.6297V54.2061H18.3239Z" fill="white"/>
<defs>
<linearGradient id="paint0_linear_201_179" x1="4.69893" y1="29.8876" x2="4.69893" y2="40.4622" gradientUnits="userSpaceOnUse">
<stop offset="0.45042" stop-color="#7EC2EB"/>
<stop offset="1" stop-color="#3B95C3"/>
</linearGradient>
<linearGradient id="paint1_linear_201_179" x1="15.0512" y1="29.908" x2="15.0512" y2="40.4616" gradientUnits="userSpaceOnUse">
<stop offset="0.45042" stop-color="#7EC2EB"/>
<stop offset="1" stop-color="#3B95C3"/>
</linearGradient>
<linearGradient id="paint2_linear_201_179" x1="28.7205" y1="29.908" x2="28.7205" y2="40.1936" gradientUnits="userSpaceOnUse">
<stop offset="0.45042" stop-color="#7EC2EB"/>
<stop offset="1" stop-color="#3B95C3"/>
</linearGradient>
</defs>
</svg>
